<?xml version="1.0" standalone="no"?>
<!DOCTYPE svg PUBLIC "-//W3C//DTD SVG 20010904//EN"
 "http://www.w3.org/TR/2001/REC-SVG-20010904/DTD/svg10.dtd">
<svg version="1.0" xmlns="http://www.w3.org/2000/svg"
 width="512.000000pt" height="512.000000pt" viewBox="0 0 512.000000 512.000000"
 preserveAspectRatio="xMidYMid meet">

<g transform="translate(0.000000,512.000000) scale(0.100000,-0.100000)"
fill="#000000" stroke="none">
<path d="M2206 4439 c-88 -77 -34 -229 80 -229 121 0 179 146 90 227 -20 18
-46 33 -58 33 -20 -1 -18 -3 9 -15 46 -20 66 -56 67 -121 0 -51 -3 -59 -32
-85 -64 -58 -147 -30 -171 56 -19 70 9 139 63 154 24 7 26 9 9 10 -12 1 -38
-13 -57 -30z"/>
<path d="M2546 4375 c-4 -52 -11 -108 -16 -125 -7 -25 -6 -30 9 -30 11 0 17 8
16 23 0 12 4 66 8 119 8 88 11 97 30 101 16 3 13 5 -9 6 l-31 1 -7 -95z"/>
<path d="M2643 4449 c11 -7 17 -22 17 -47 0 -41 -14 -62 -42 -62 -10 0 -18 -3
-18 -6 0 -17 64 -115 80 -124 26 -14 37 -12 18 3 -27 20 -79 117 -64 117 22 0
49 39 49 72 0 30 -23 58 -47 58 -6 0 -3 -5 7 -11z"/>
<path d="M2830 4430 c0 -6 7 -10 15 -10 8 0 15 2 15 4 0 2 -7 6 -15 10 -8 3
-15 1 -15 -4z"/>
<path d="M1985 4408 c49 -26 59 -74 23 -108 -12 -11 -17 -20 -12 -20 20 0 54
46 54 72 0 29 -41 68 -69 68 -12 -1 -12 -3 4 -12z"/>
<path d="M2913 4403 c5 -8 -40 -180 -58 -225 -5 -13 -2 -18 9 -18 9 0 16 6 16
13 0 6 12 58 27 115 23 85 31 102 47 102 25 0 18 5 -17 14 -16 4 -26 3 -24 -1z"/>
<path d="M1895 4389 c13 -20 64 -222 59 -231 -3 -4 -1 -8 5 -8 21 0 19 20 -11
133 -21 79 -36 117 -45 117 -8 0 -11 -5 -8 -11z"/>
<path d="M3119 4202 c-53 -48 -91 -90 -86 -93 5 -4 23 9 40 28 16 19 36 32 43
29 8 -3 11 0 8 8 -5 13 75 90 84 82 9 -9 -11 -116 -22 -116 -6 0 -5 -4 3 -9
12 -8 13 -18 4 -55 -8 -37 -7 -46 5 -51 8 -3 16 -4 18 -3 5 5 9 268 4 267 -3
0 -48 -39 -101 -87z"/>
<path d="M1550 4249 c-12 -9 -12 -10 4 -5 10 4 30 -1 43 -10 20 -13 24 -22 21
-50 -5 -46 9 -44 18 3 6 31 3 39 -16 55 -25 20 -48 23 -70 7z"/>
<path d="M1507 4229 c-16 -9 -16 -12 -3 -22 8 -7 37 -55 64 -108 l50 -96 29
15 c43 22 73 53 73 77 0 34 -28 65 -58 64 -26 0 -26 -1 -5 -9 52 -21 54 -89 4
-115 l-29 -15 -53 98 c-28 53 -52 103 -52 110 0 6 -1 12 -1 12 -1 0 -9 -5 -19
-11z"/>
<path d="M3430 4149 c-6 -11 -37 -57 -69 -103 -54 -76 -57 -84 -40 -94 15 -9
17 -9 13 2 -5 13 109 187 127 194 11 4 2 22 -11 22 -5 0 -14 -9 -20 -21z"/>
<path d="M1340 4091 c49 -10 75 -26 100 -61 34 -47 37 -95 10 -133 -22 -30
-22 -31 -2 -13 81 71 11 218 -103 215 l-40 -1 35 -7z"/>
<path d="M1251 4053 c-52 -65 -36 -144 39 -196 25 -17 105 -24 114 -9 2 4 -13
6 -35 4 -36 -4 -44 0 -84 41 -40 39 -45 49 -45 89 0 31 7 54 21 72 11 14 18
26 15 26 -2 0 -14 -12 -25 -27z"/>
<path d="M3387 3909 c7 -7 15 -10 18 -7 3 3 -2 9 -12 12 -14 6 -15 5 -6 -5z"/>
<path d="M1065 3880 c-6 -9 31 -46 153 -154 23 -21 46 -52 51 -70 l9 -31 1 31
c1 26 -14 45 -104 132 -57 56 -107 97 -110 92z"/>
<path d="M1601 3680 c25 -13 45 -35 60 -67 l24 -48 0 -690 c0 -663 -1 -692
-19 -734 -11 -24 -35 -53 -55 -67 l-36 -24 265 0 265 0 -37 22 c-26 15 -44 37
-60 72 -22 50 -23 61 -26 397 l-3 346 61 53 c33 29 62 51 65 49 8 -9 334 -729
349 -772 22 -67 20 -94 -12 -136 -57 -74 -83 -165 -84 -296 -1 -146 43 -246
141 -323 108 -86 225 -122 396 -122 192 0 329 46 430 145 61 59 118 170 134
259 7 39 11 290 11 710 0 372 5 680 10 719 15 102 47 154 126 204 15 9 -50 12
-303 12 -178 1 -323 -2 -323 -6 0 -5 17 -17 37 -28 45 -24 79 -87 93 -170 16
-98 13 -1241 -4 -1351 -34 -229 -143 -412 -231 -390 -60 15 -130 124 -156 241
-13 63 -17 304 -5 343 7 21 12 22 107 22 l99 0 -42 38 c-23 20 -56 61 -75 90
-59 91 -374 774 -375 810 l0 33 -62 -6 c-73 -8 -134 6 -172 39 l-27 23 224
227 c237 241 324 318 411 366 l53 30 -245 0 c-244 0 -245 0 -214 -19 65 -40
99 -113 71 -154 -19 -28 -474 -487 -482 -487 -4 0 -5 116 -3 258 3 217 7 263
21 297 22 50 44 74 82 91 26 11 -8 13 -245 13 l-275 0 36 -19z"/>
<path d="M844 3578 c-10 -13 -12 -17 -4 -10 32 28 100 4 100 -36 0 -12 3 -13
12 -4 28 28 85 11 104 -32 l13 -31 1 28 c0 50 -58 84 -100 58 -10 -7 -19 -2
-32 20 -22 37 -66 40 -94 7z"/>
<path d="M810 3531 c-9 -17 -8 -21 6 -21 18 0 185 -97 196 -114 8 -12 7 -12
31 26 23 36 22 46 -2 17 l-19 -23 -88 53 c-49 30 -94 60 -101 68 -10 12 -13
11 -23 -6z"/>
<path d="M795 3200 c55 -55 102 -95 104 -89 2 6 -1 14 -7 18 -13 8 -111 102
-136 130 l-20 22 114 -2 c79 -2 115 1 118 9 3 9 -34 12 -134 12 l-139 0 100
-100z"/>
<path d="M4064 3120 c-11 -4 -33 -22 -47 -40 -44 -51 -32 -145 23 -183 23 -16
81 -9 87 10 3 9 -4 9 -29 2 -50 -14 -57 -12 -78 24 -30 48 -26 102 8 137 51
51 153 52 192 3 11 -14 20 -22 20 -17 -1 15 -33 51 -57 63 -25 13 -89 14 -119
1z"/>
<path d="M620 3054 c0 -8 4 -13 8 -10 5 3 31 -15 58 -39 l49 -43 -30 -12 c-16
-7 -49 -15 -72 -17 -32 -4 -43 -10 -43 -23 0 -15 8 -14 77 10 71 25 81 26 129
15 45 -10 54 -10 58 2 8 21 7 25 -5 18 -6 -4 -31 -4 -56 0 -38 5 -57 17 -103
61 -61 58 -70 63 -70 38z"/>
<path d="M4241 3024 c0 -11 3 -14 6 -6 3 7 2 16 -1 19 -3 4 -6 -2 -5 -13z"/>
<path d="M4238 2967 c-3 -19 -2 -25 4 -19 6 6 8 18 6 28 -3 14 -5 12 -10 -9z"/>
<path d="M4185 2770 c-49 -3 -98 -10 -108 -14 -22 -11 -47 -58 -46 -88 1 -25
4 -19 13 24 9 41 49 57 154 59 68 2 92 6 92 16 0 7 -3 12 -7 11 -5 -1 -48 -4
-98 -8z"/>
<path d="M808 2755 c-2 -3 -53 -11 -112 -19 -59 -8 -110 -16 -112 -19 -2 -2
28 -19 68 -36 100 -45 118 -49 34 -7 l-70 34 60 6 c32 3 78 7 102 8 33 2 42 6
42 20 0 19 -3 22 -12 13z"/>
<path d="M769 2628 c10 -11 -9 -23 -96 -64 l-108 -51 80 -8 c44 -4 101 -11
128 -15 26 -4 47 -4 47 1 0 4 -30 10 -67 14 -38 3 -81 9 -98 12 l-30 6 40 18
c161 72 159 71 134 85 -31 17 -47 18 -30 2z"/>
<path d="M4043 2627 c4 -10 7 -20 7 -23 0 -2 13 -10 29 -19 34 -17 211 -17
211 0 0 6 -39 9 -104 7 -103 -3 -104 -3 -126 25 -14 16 -20 20 -17 10z"/>
<path d="M4036 2462 c-9 -8 -7 -24 2 -18 5 3 46 -17 92 -45 46 -27 85 -48 87
-46 1 2 -37 29 -86 59 -49 31 -92 54 -95 50z"/>
<path d="M818 2393 c-1 -5 -39 -32 -83 -62 -143 -97 -142 -85 -7 -111 64 -13
125 -27 134 -32 13 -6 16 -5 12 6 -3 8 -25 17 -50 21 -24 3 -44 11 -44 16 0 6
-5 7 -11 4 -13 -9 -119 4 -119 13 0 7 81 59 90 58 3 -1 17 9 30 22 14 12 35
25 47 28 13 4 23 12 23 19 0 16 -17 29 -22 18z"/>
<path d="M4112 2370 c0 -14 2 -19 5 -12 2 6 2 18 0 25 -3 6 -5 1 -5 -13z"/>
<path d="M4230 2341 c0 -6 -86 -31 -110 -31 -5 0 -11 8 -13 18 -4 13 -5 11 -6
-5 -1 -23 -13 -27 -73 -26 -10 0 -18 -4 -18 -8 0 -4 -3 -14 -6 -23 -5 -14 -2
-14 27 -2 19 7 78 24 132 37 95 23 112 31 82 43 -8 3 -15 2 -15 -3z"/>
<path d="M3970 2151 c0 -5 48 -26 108 -46 59 -20 113 -39 120 -42 6 -2 12 2
12 11 0 9 -7 16 -15 16 -9 0 -61 16 -116 35 -113 39 -109 38 -109 26z"/>
<path d="M796 2018 l-98 -97 139 -3 c131 -3 140 -2 135 15 -3 13 -8 15 -15 8
-6 -6 -26 -11 -44 -11 -25 0 -36 6 -48 28 l-15 27 6 -27 6 -28 -63 0 -63 0 44
45 c24 24 47 42 51 39 4 -2 10 5 14 16 3 11 9 20 13 20 19 1 53 40 45 52 -6 9
-36 -15 -107 -84z"/>
<path d="M4065 2072 c-6 -5 -30 -14 -55 -21 -52 -15 -90 -37 -90 -52 0 -8 4
-8 14 0 7 6 39 20 70 31 l56 19 0 -24 c0 -48 80 -74 113 -37 10 10 17 23 17
28 0 5 -5 1 -11 -8 -16 -28 -75 -24 -95 7 -9 14 -13 32 -9 45 7 22 4 25 -10
12z"/>
<path d="M3886 1921 c-5 -7 -5 -16 0 -20 5 -3 19 -18 32 -33 23 -25 23 -27 8
-57 -9 -17 -14 -31 -12 -31 3 0 12 12 19 26 l14 26 38 -46 c21 -26 36 -48 34
-51 -6 -5 -195 22 -208 29 -6 4 -15 -3 -21 -15 -7 -12 -8 -19 -3 -16 6 4 66 0
134 -7 68 -8 126 -12 128 -10 2 2 -30 45 -71 96 -41 51 -77 100 -80 108 -3 11
-6 11 -12 1z"/>
<path d="M982 1764 l-23 -76 -51 6 c-28 4 -65 10 -82 13 -22 4 -28 2 -21 -5 6
-6 46 -14 90 -17 l80 -7 23 69 c24 75 27 93 14 93 -4 0 -18 -34 -30 -76z"/>
<path d="M1075 1721 c-3 -6 -51 -38 -106 -70 -83 -49 -97 -61 -84 -71 10 -8
15 -9 15 -2 0 6 44 37 98 69 53 31 99 58 101 60 3 2 0 8 -6 14 -8 8 -13 8 -18
0z"/>
<path d="M3728 1659 c-2 -7 17 -30 46 -53 28 -21 64 -51 79 -65 l28 -26 -142
-10 -143 -10 97 -83 c53 -45 97 -78 97 -73 0 5 -35 38 -77 73 l-78 63 50 7
c28 3 85 7 127 7 118 1 118 4 23 82 -46 38 -88 77 -93 86 -7 12 -10 13 -14 2z"/>
<path d="M3453 1373 c-8 -3 20 -43 68 -100 l80 -96 -28 -23 c-15 -13 -31 -23
-35 -24 -5 0 -8 -5 -8 -11 0 -6 20 6 45 26 l45 37 -63 77 c-35 42 -70 85 -78
97 -8 11 -20 19 -26 17z"/>
<path d="M3286 1251 c-4 -6 21 -56 54 -111 33 -55 58 -105 54 -111 -4 -7 2 -6
16 1 14 8 19 15 12 19 -6 4 -38 53 -71 110 -32 56 -62 98 -65 92z"/>
<path d="M3664 1229 c-19 -22 -19 -22 4 -8 12 8 22 17 22 21 0 12 -6 9 -26
-13z"/>
<path d="M3228 1218 c-21 -12 -38 -25 -38 -30 0 -4 17 4 37 18 61 41 61 47 1
12z"/>
<path d="M1600 1190 c-24 -24 -25 -53 -5 -110 22 -63 19 -87 -12 -104 -20 -11
-23 -15 -10 -16 23 0 57 35 57 61 0 12 -7 42 -17 68 -21 59 -12 96 24 109 25
9 26 10 6 11 -13 1 -32 -8 -43 -19z"/>
<path d="M1696 1165 c8 -37 10 -39 17 -23 2 8 -2 23 -10 33 -13 19 -14 18 -7
-10z"/>
<path d="M3067 1134 c-3 -4 0 -18 7 -33 8 -14 29 -64 47 -111 39 -100 35 -94
49 -85 7 4 7 11 2 18 -13 17 -82 190 -82 205 0 13 -13 16 -23 6z"/>
<path d="M3293 1118 c-13 -6 -23 -15 -23 -20 0 -5 11 -1 25 8 37 24 35 30 -2
12z"/>
<path d="M1787 1092 c-10 -10 -17 -31 -17 -47 0 -16 7 -37 17 -47 15 -17 15
-18 0 -18 -9 0 -24 -11 -32 -24 -13 -19 -13 -28 -4 -49 6 -14 18 -28 25 -31
12 -5 12 -2 0 17 -17 26 -7 60 22 78 17 11 18 15 6 26 -17 18 -18 64 -1 85 6
9 26 19 42 21 28 4 28 4 -6 6 -24 0 -42 -5 -52 -17z"/>
<path d="M2981 1101 c-7 -5 -12 -13 -10 -18 2 -5 12 -1 22 9 18 19 12 24 -12
9z"/>
<path d="M1888 1094 c18 -8 16 -17 -24 -126 -25 -68 -41 -98 -53 -99 -12 0
-12 -2 4 -9 30 -13 32 -12 38 19 4 16 22 69 41 117 19 49 34 89 33 90 -1 1
-13 4 -27 8 -14 3 -19 3 -12 0z"/>
<path d="M2418 1069 c-25 -14 -36 -70 -38 -193 0 -60 -3 -113 -6 -118 -3 -4 3
-8 13 -8 17 0 18 12 18 144 0 128 2 146 19 165 21 23 20 25 -6 10z"/>
<path d="M2840 1043 c0 -10 9 -56 20 -103 24 -106 25 -130 3 -130 -9 0 -14 -2
-11 -5 3 -3 19 -2 37 1 22 5 29 10 22 18 -6 6 -20 62 -33 124 -12 62 -26 112
-30 112 -5 0 -8 -8 -8 -17z"/>
<path d="M2070 1022 c-83 -44 -93 -183 -17 -223 l22 -12 -23 25 c-63 69 -22
196 70 218 28 7 29 8 8 9 -14 1 -41 -7 -60 -17z"/>
<path d="M2698 1000 c-39 -39 -40 -42 -36 -92 5 -44 11 -57 42 -85 19 -18 46
-33 58 -33 19 0 17 3 -12 18 -94 46 -92 194 3 221 27 8 28 9 8 10 -15 1 -38
-14 -63 -39z"/>
<path d="M2202 1003 c32 -35 42 -79 28 -128 -14 -51 -42 -80 -90 -93 -27 -8
-30 -10 -12 -11 45 -2 93 30 113 73 10 23 19 51 19 64 0 36 -26 89 -52 103
-22 12 -22 11 -6 -8z"/>
<path d="M3345 1000 c-16 -11 -25 -20 -20 -20 10 0 64 39 55 40 -3 0 -18 -9
-35 -20z"/>
<path d="M1510 1001 c0 -5 5 -13 10 -16 6 -3 10 -2 10 4 0 5 -4 13 -10 16 -5
3 -10 2 -10 -4z"/>
<path d="M3048 1003 c-10 -2 -18 -9 -18 -14 0 -6 10 -5 23 2 37 20 36 23 -5
12z"/>
<path d="M3093 887 c-18 -6 -33 -15 -33 -19 0 -12 11 -9 50 12 38 21 33 23
-17 7z"/>
<path d="M2798 793 c7 -3 16 -2 19 1 4 3 -2 6 -13 5 -11 0 -14 -3 -6 -6z"/>
</g>
</svg>
